<svg width="64" height="64" viewBox="0 0 64 64" fill="none" xmlns="http://www.w3.org/2000/svg">
<g id="Frame 121">
<g id="image 46 (Traced)">
<path fill-rule="evenodd" clip-rule="evenodd" d="M26.2083 22.723C24.7627 23.3353 23.2114 24.7678 22.6374 26.0203C19.9411 31.9041 17.738 34.9131 13.1694 38.9526L12.7622 39.3125L15.9535 49.927C17.7085 55.765 19.1446 60.5694 19.1446 60.6035C19.1446 60.7044 36.593 60.5129 39.7908 60.377C47.6373 60.0434 54.1331 59.5189 54.9594 59.152C56.0866 58.6516 56.8216 57.7224 57.0708 56.4826C57.1834 55.9226 57.1733 55.7174 57.0145 55.3376L56.821 54.875H52.8008H48.7807L48.415 54.5096C47.8817 53.9769 47.974 53.0819 48.5948 52.7664C48.7668 52.679 50.2941 52.6181 52.8667 52.5964L56.8708 52.5625L57.5988 52.2054C58.8574 51.588 59.52 50.3716 59.4117 48.8768C59.346 47.9686 59.0766 47.549 58.3072 47.1563C57.7628 46.8784 57.6959 46.875 52.7246 46.875H47.693L47.3081 46.5514C46.7957 46.1208 46.7699 45.4371 47.248 44.9594L47.5731 44.6348L53.0978 44.5986C58.6047 44.5626 58.6247 44.5615 59.2785 44.2663C60.5175 43.7068 61.3472 42.4294 61.3654 41.0534C61.3776 40.1246 61.0139 39.5001 60.241 39.1231C59.755 38.8861 59.4629 38.875 53.6934 38.875H47.6546L47.2888 38.5096C46.8108 38.0321 46.7864 37.3751 47.2303 36.9319L47.5373 36.625H54.2753H61.0134L61.6649 36.3006C62.8962 35.6878 63.9938 33.8521 63.9998 32.3963C64.0028 31.6589 63.9753 31.5803 63.5944 31.24L63.1857 30.875H45.7888C26.5318 30.875 27.8154 30.9318 27.5301 30.0683C27.3431 29.5024 27.5619 29.0098 28.1154 28.75C28.5128 28.5635 28.5146 28.5585 28.4469 27.8125C28.3601 26.8563 27.9894 24.9893 27.6157 23.625C27.285 22.4176 27.1433 22.3269 26.2083 22.723ZM19.7053 47.0884C19.7943 46.5754 19.3942 45.301 19.0235 44.9163C18.4653 44.3369 17.3929 44.6456 17.1925 45.4435C17.1066 45.7848 17.306 46.7149 17.5959 47.3264C18.0619 48.3094 19.5222 48.1445 19.7053 47.0884ZM21.7648 53.3125C20.9827 50.7595 20.8913 50.5663 20.381 50.3885C19.9245 50.2296 19.9228 50.2295 19.5647 50.374C19.1865 50.5264 18.8941 50.9898 18.8956 51.4341C18.8975 51.9871 20.1889 56.026 20.5736 56.6816C20.9194 57.2714 21.6713 57.862 22.3853 58.1051C22.966 58.3029 27.5712 58.3024 27.9431 58.1046C28.0934 58.0246 28.285 57.8699 28.3688 57.7609C28.6036 57.4555 28.5608 56.6918 28.2904 56.3576C28.0566 56.0689 27.9961 56.0611 25.4781 56C23.1159 55.9426 22.8847 55.917 22.6602 55.6875C22.5212 55.5453 22.1352 54.5214 21.7648 53.3125ZM34.15 57.5188C34.3696 57.1089 34.3068 56.5388 34.0036 56.1903C33.6839 55.8228 33.1764 55.729 32.2205 55.8607C31.4136 55.972 31.0877 56.1598 30.9333 56.6023C30.7595 57.1005 30.8808 57.5865 31.2515 57.8779C31.8773 58.3696 33.8233 58.1286 34.15 57.5188Z" fill="#1B1B1B"/>
<path fill-rule="evenodd" clip-rule="evenodd" d="M30.8564 0.40625C30.8225 0.62975 30.7634 1.30425 30.725 1.90513C30.6343 3.324 30.2877 5.08663 29.6661 7.29C28.7293 10.6114 28.4672 13.0049 28.6582 16.493C28.7887 18.8773 28.9768 19.986 29.6731 22.4788C30.246 24.5299 30.5972 26.2613 30.7233 27.6563L30.8109 28.625H31.9411H33.0713L32.9934 27.5313C32.8864 26.0281 32.6272 24.7085 31.9068 22C31.0001 18.5909 30.9687 18.3469 30.9731 14.75C30.9774 11.2344 31.0488 10.7146 31.961 7.56275C32.5043 5.6855 32.6227 5.5645 33.8034 5.68075C35.4564 5.8435 36.3351 5.13313 36.6 3.41988C36.6487 3.10438 36.8026 2.78713 36.994 2.60738L37.3081 2.3125L43.5233 2.27425C46.9416 2.25325 49.9848 2.27175 50.286 2.3155C50.9115 2.40638 51.4273 2.83975 51.4284 3.27563C51.4316 4.56938 52.2942 5.477 53.8329 5.80538C54.2917 5.90325 54.681 6.34538 54.681 6.76875C54.681 6.95938 54.5695 7.59275 54.4334 8.17625C53.9828 10.1069 53.8051 12.0009 53.8051 14.875C53.8051 18.668 53.9904 19.9496 55.2148 24.625C55.4601 25.5616 55.6961 26.827 55.7452 27.4688L55.8337 28.625H57.0091H58.1846V28.1374C58.1846 27.3343 57.7186 24.916 57.2428 23.25C56.253 19.7841 55.9952 17.703 56.0905 13.9453C56.1554 11.3802 56.3923 9.58188 56.9144 7.6875C57.6472 5.02938 57.8177 4.34125 57.9828 3.375C58.0827 2.79063 58.2044 1.79225 58.2532 1.15625L58.342 0H44.63H30.918L30.8564 0.40625ZM38.6068 4.96875C38.4827 5.47075 37.8351 6.43337 37.3144 6.89012C36.6992 7.42963 35.6753 7.87875 34.8711 7.96163L34.205 8.03038L33.8646 9.25388C33.3107 11.2438 33.1199 13.0969 33.202 15.6875C33.2777 18.0719 33.4334 19.0376 34.1475 21.5523C34.6484 23.3163 35.1201 25.5796 35.2177 26.6875C35.26 27.1688 35.3247 27.8035 35.3614 28.0981L35.4279 28.6339L36.6316 28.5981L37.8355 28.5625L37.9927 27.946C38.2587 26.9023 38.9283 25.7505 39.7411 24.9386C43.3971 21.2864 49.4488 22.7279 51.1047 27.6455L51.4135 28.5625L52.4841 28.5986C53.073 28.6185 53.5539 28.5904 53.5526 28.5361C53.5318 27.616 53.198 25.8425 52.6872 23.9391C51.7244 20.3513 51.5131 18.7238 51.511 14.875C51.5095 12.212 51.5543 11.3951 51.7834 9.91088C51.9342 8.93363 52.0881 8.055 52.1253 7.95813C52.1701 7.84163 51.9669 7.65462 51.5252 7.40562C50.6936 6.93663 49.9903 6.17037 49.5898 5.29625L49.2821 4.625H43.9869H38.6918L38.6068 4.96875ZM44.0451 10.6621C44.535 10.8426 44.9528 11.1349 45.4951 11.6765C46.4719 12.6524 46.8389 13.5258 46.8389 14.875C46.8389 16.2243 46.4719 17.0976 45.4951 18.0735C44.5475 19.0201 43.666 19.3914 42.3593 19.3944C40.4979 19.3986 39.0889 18.531 38.1885 16.8259C37.8843 16.25 37.8513 16.059 37.8513 14.875C37.8513 13.6174 37.8692 13.5295 38.2801 12.7724C39.4209 10.6704 41.7516 9.81725 44.0451 10.6621ZM41.3012 12.844C41.0652 12.9641 40.7027 13.2743 40.4957 13.5331C40.0035 14.1486 39.8993 15.2083 40.2655 15.8719C41.1264 17.4313 43.2593 17.5567 44.2027 16.1034C44.9215 14.9959 44.5088 13.4321 43.3498 12.8715C42.7193 12.5666 41.8681 12.5551 41.3012 12.844ZM43.4236 25.3179C41.9243 25.7361 40.6769 26.9205 40.2363 28.3438L40.1493 28.625H44.5529H48.9564L48.8751 28.2188C48.7528 27.6079 47.985 26.5378 47.3461 26.0879C46.1608 25.2533 44.6903 24.9646 43.4236 25.3179Z" fill="#E07153"/>
<path d="M0.685202 38.3025C0.476989 38.3915 0.237744 38.6155 0.153407 38.8005C0.0356615 39.0585 0 41.9435 0 51.203V63.2693L0.36575 63.6346C0.566956 63.8356 0.849871 64 0.994644 64C1.13929 64 4.02938 63.4403 7.4171 62.7561C15.9998 61.0229 16.6772 60.8815 16.7498 60.809C16.7851 60.7738 15.4109 56.0701 13.696 50.3566C11.1114 41.7453 10.5348 39.9501 10.3255 39.862C10.1864 39.8035 8.15836 39.4162 5.81846 39.0014C3.47856 38.5865 1.45149 38.2233 1.31385 38.194C1.1762 38.1647 0.89329 38.2136 0.685202 38.3025Z" fill="#1B1B1B"/>
</g>
</g>
</svg>
