<svg width="64" height="64" viewBox="0 0 64 64" fill="none" xmlns="http://www.w3.org/2000/svg">
<g id="Frame 119">
<g id="image 48 (Traced)">
<path fill-rule="evenodd" clip-rule="evenodd" d="M0.0797101 27.9814C0.378311 26.1047 1.78636 24.4527 3.56597 23.8911C3.99538 23.7556 8.10082 23.7293 25.8316 23.7486L47.5707 23.7724L48.3203 24.1415C49.7594 24.8501 50.9205 26.397 51.0895 27.8308L51.1663 28.4826H25.5831H0L0.0797101 27.9814ZM0.031984 40.7925V36.5215V32.2507H25.6458H51.2598L51.2268 36.4899L51.1939 40.729L25.6129 40.7607L0.031984 40.7925ZM0.0944528 57.1968L0.0578461 50.8784L0.0211144 44.56H25.6388H51.2564L51.2523 50.118C51.25 53.1748 51.1993 56.0571 51.1396 56.5228C50.9368 58.1037 50.017 59.5513 48.7355 60.3063C48.6003 60.3859 48.4932 60.4567 48.3817 60.5195C47.4431 61.0484 46.19 61.017 25.2595 60.9845L3.84258 60.9514L3.008 60.5538C1.8467 60.0008 1.12306 59.2886 0.561095 58.1458L0.0944528 57.1968ZM16.7736 54.6083C16.7736 54.0617 16.2999 53.2876 15.7884 52.9986C15.3132 52.7302 15.203 52.7243 10.6347 52.7249L5.96652 52.7255L5.47839 53.0226C4.23201 53.7811 4.24475 55.5004 5.50212 56.2108C5.99338 56.4884 6.06647 56.4924 10.598 56.4924C14.9849 56.4924 15.2199 56.4806 15.7271 56.2337C16.2886 55.9604 16.7736 55.2072 16.7736 54.6083Z" fill="black"/>
<path d="M49.3198 4.82102C19.267 10.0844 11.195 11.5449 10.5701 11.8325C9.13131 12.4948 8.02861 14.0067 7.76662 15.6767C7.65955 16.3589 7.68578 16.756 7.93166 18.183L8.22401 19.8786L28.1472 19.9414L48.0705 20.0042L49.0414 20.3618C51.1389 21.1346 53.044 22.8236 53.9886 24.748C54.8802 26.5641 54.8757 26.5122 54.8777 34.8496C54.8787 38.9387 54.9217 42.3093 54.9733 42.3397C55.0249 42.3702 56.2931 42.175 57.7919 41.9058C60.596 41.4023 61.3393 41.1551 62.1884 40.4444C63.198 39.5992 64 37.948 64 36.7142C64 36.4204 62.8729 29.7426 61.4955 21.8747C59.5718 10.8865 58.922 7.41739 58.6932 6.91397C58.337 6.13007 57.4312 5.1231 56.6892 4.68599C56.0828 4.32877 54.8931 3.98411 54.3223 4.00057C54.1134 4.00647 51.8623 4.37575 49.3198 4.82102Z" fill="#E07153"/>
</g>
</g>
</svg>
